<svg width="603" height="177" viewBox="0 0 603 177" fill="none" xmlns="http://www.w3.org/2000/svg">
<path fill-rule="evenodd" clip-rule="evenodd" d="M70.1152 19.3335L82.4508 6.99784L89.0178 0.430908L95.5851 6.99784L107.92 19.3335C114.125 25.5379 116.512 34.1715 115.082 42.245C122.469 40.9176 130.332 42.7873 136.379 47.8553L129.772 54.4623C123.36 49.6173 114.134 50.0342 108.207 55.7144C108.112 55.8127 108.017 55.9117 107.92 56.0085L95.5851 68.3441L105.732 78.4917L99.1654 85.0587L70.1152 56.0085C60.0295 45.9228 60.0295 29.4191 70.1152 19.3335ZM101.636 49.1516C101.553 49.2325 101.469 49.3123 101.387 49.3943L89.0113 61.7704L76.6825 49.4415C70.2214 42.9808 70.2214 32.3611 76.6825 25.9004L89.0178 13.5648L101.353 25.9004C107.718 32.2655 107.813 42.6667 101.636 49.1516Z" fill="#D3AE6E"/>
<path fill-rule="evenodd" clip-rule="evenodd" d="M19.7882 107.706L7.45253 95.3703L0.885605 88.8034L7.45253 82.2361L19.7882 69.9008C25.9926 63.6964 34.6262 61.3096 42.6997 62.7398C41.3723 55.3523 43.242 47.4894 48.31 41.4421L54.917 48.0491C50.072 54.4615 50.4889 63.6873 56.1691 69.614C56.2674 69.7092 56.3664 69.8037 56.4632 69.9008L68.7988 82.2361L78.9464 72.0888L85.5134 78.6557L56.4632 107.706C46.3775 117.792 29.8738 117.792 19.7882 107.706ZM49.6064 76.1851C49.6872 76.2682 49.767 76.3517 49.849 76.4341L62.2251 88.8098L49.8962 101.139C43.4355 107.6 32.8158 107.6 26.3551 101.139L14.0195 88.8034L26.3551 76.4678C32.7202 70.1027 43.1214 70.0086 49.6064 76.1851Z" fill="#D3AE6E"/>
<path fill-rule="evenodd" clip-rule="evenodd" d="M108.16 158.033L95.8251 170.369L89.2578 176.936L82.6908 170.369L70.3552 158.033C64.1507 151.829 61.7643 143.195 63.1941 135.121C55.8071 136.449 47.9441 134.579 41.8969 129.511L48.5039 122.904C54.9158 127.749 64.1417 127.332 70.0687 121.652C70.164 121.554 70.2585 121.455 70.3552 121.358L82.6908 109.022L72.5432 98.8747L79.1105 92.3077L108.16 121.358C118.246 131.444 118.246 147.947 108.16 158.033ZM76.6398 128.215C76.7226 128.134 76.8065 128.054 76.8885 127.972L89.2646 115.596L101.593 127.925C108.054 134.386 108.054 145.005 101.593 151.466L89.2578 163.802L76.9225 151.466C70.5574 145.101 70.4633 134.7 76.6398 128.215Z" fill="#D3AE6E"/>
<path fill-rule="evenodd" clip-rule="evenodd" d="M158.488 69.6609L170.823 81.9962L177.39 88.5635L170.823 95.1304L158.488 107.466C152.283 113.67 143.65 116.057 135.576 114.627C136.904 122.014 135.034 129.877 129.966 135.924L123.359 129.317C128.204 122.905 127.787 113.68 122.107 107.753C122.009 107.657 121.909 107.563 121.813 107.466L109.477 95.1304L99.3295 105.278L92.7625 98.7111L121.813 69.6609C131.898 59.5753 148.402 59.5753 158.488 69.6609ZM128.67 101.181C128.589 101.099 128.509 101.015 128.427 100.933L116.051 88.5567L128.38 76.2279C134.84 69.7671 145.46 69.7671 151.921 76.2279L164.256 88.5635L151.921 100.899C145.556 107.264 135.154 107.358 128.67 101.181Z" fill="#D3AE6E"/>
<path d="M253.348 155.987C251.955 155.987 250.612 155.806 249.319 155.446C248.026 155.085 246.969 154.563 246.148 153.879C245.327 153.195 244.917 152.405 244.917 151.51V147.145H245.962C246.335 149.682 247.118 151.51 248.312 152.629C249.506 153.749 251.172 154.308 253.311 154.308C254.753 154.308 255.898 153.997 256.743 153.375C257.588 152.753 258.011 151.858 258.011 150.689C258.011 149.695 257.7 148.849 257.079 148.153C256.457 147.456 255.487 146.697 254.169 145.877L249.58 143.116C247.914 142.146 246.726 141.139 246.017 140.094C245.309 139.05 244.954 137.831 244.954 136.438C244.954 134.474 245.706 132.919 247.211 131.775C248.716 130.631 250.749 130.059 253.311 130.059C254.704 130.059 256.046 130.239 257.34 130.6C258.633 130.961 259.69 131.483 260.511 132.167C261.332 132.851 261.742 133.64 261.742 134.536V138.901H260.698C260.275 136.364 259.491 134.536 258.347 133.417C257.203 132.297 255.661 131.738 253.721 131.738C252.378 131.738 251.315 132.061 250.531 132.708C249.748 133.354 249.356 134.237 249.356 135.357C249.356 136.326 249.661 137.128 250.27 137.763C250.88 138.397 251.868 139.112 253.236 139.908L257.825 142.631C259.566 143.651 260.815 144.639 261.574 145.597C262.333 146.555 262.712 147.705 262.712 149.048C262.712 151.212 261.898 152.909 260.269 154.14C258.64 155.371 256.333 155.987 253.348 155.987ZM266.368 135.095C265.821 133.727 265.261 132.757 264.689 132.186C264.117 131.613 263.446 131.278 262.675 131.178V130.432L264.242 130.357C265.908 130.357 267.363 130.662 268.606 131.271C269.85 131.881 270.857 133.155 271.628 135.095L276.665 147.966L280.022 138.415L278.716 135.095C278.169 133.752 277.578 132.788 276.944 132.204C276.31 131.62 275.582 131.278 274.762 131.178V130.432L276.217 130.357C277.883 130.357 279.338 130.668 280.582 131.29C281.825 131.912 282.832 133.18 283.603 135.095L288.938 148.675L295.318 130.73H297.108L288.267 155.688H286.774L281.029 141.064L275.918 155.688H274.426L266.368 135.095ZM301.436 135.58C301.436 134.312 301.262 133.373 300.914 132.764C300.565 132.154 299.869 131.85 298.825 131.85H298.452V130.73H314.904C317.017 130.73 318.075 131.725 318.075 133.715V136.886H316.955C316.955 135.344 316.563 134.213 315.78 133.491C314.997 132.77 313.834 132.409 312.292 132.409H306.286V141.736H315.985V143.415H306.286V153.674H312.665C314.083 153.674 315.264 153.357 316.209 152.722C317.154 152.088 317.938 150.988 318.559 149.421L319.567 149.794L318.485 152.741C318.161 153.637 317.776 154.295 317.328 154.718C316.881 155.141 316.184 155.353 315.239 155.353H301.436V135.58ZM323.82 135.58C323.82 134.312 323.646 133.373 323.297 132.764C322.949 132.154 322.253 131.85 321.208 131.85H320.835V130.73H337.287C339.401 130.73 340.458 131.725 340.458 133.715V136.886H339.339C339.339 135.344 338.947 134.213 338.164 133.491C337.381 132.77 336.218 132.409 334.676 132.409H328.67V141.736H338.369V143.415H328.67V153.674H335.049C336.466 153.674 337.648 153.357 338.593 152.722C339.538 152.088 340.322 150.988 340.943 149.421L341.951 149.794L340.869 152.741C340.545 153.637 340.16 154.295 339.712 154.718C339.264 155.141 338.568 155.353 337.623 155.353H323.82V135.58ZM351.315 132.409H348.666C347.273 132.409 346.21 132.757 345.476 133.454C344.742 134.15 344.375 135.294 344.375 136.886H343.256V133.715C343.256 131.725 344.313 130.73 346.427 130.73H363.961V132.409H356.165V155.353H351.315V132.409ZM374.295 155.987C372.903 155.987 371.559 155.806 370.266 155.446C368.973 155.085 367.916 154.563 367.095 153.879C366.274 153.195 365.864 152.405 365.864 151.51V147.145H366.909C367.282 149.682 368.065 151.51 369.259 152.629C370.453 153.749 372.119 154.308 374.258 154.308C375.701 154.308 376.845 153.997 377.69 153.375C378.536 152.753 378.959 151.858 378.959 150.689C378.959 149.695 378.647 148.849 378.026 148.153C377.404 147.456 376.434 146.697 375.116 145.877L370.527 143.116C368.861 142.146 367.673 141.139 366.965 140.094C366.256 139.05 365.901 137.831 365.901 136.438C365.901 134.474 366.654 132.919 368.159 131.775C369.663 130.631 371.696 130.059 374.258 130.059C375.651 130.059 376.994 130.239 378.287 130.6C379.58 130.961 380.637 131.483 381.458 132.167C382.279 132.851 382.689 133.64 382.689 134.536V138.901H381.645C381.222 136.364 380.438 134.536 379.294 133.417C378.15 132.297 376.608 131.738 374.668 131.738C373.325 131.738 372.262 132.061 371.478 132.708C370.695 133.354 370.303 134.237 370.303 135.357C370.303 136.326 370.608 137.128 371.217 137.763C371.827 138.397 372.815 139.112 374.184 139.908L378.772 142.631C380.513 143.651 381.763 144.639 382.521 145.597C383.28 146.555 383.659 147.705 383.659 149.048C383.659 151.212 382.845 152.909 381.216 154.14C379.587 155.371 377.28 155.987 374.295 155.987ZM412.608 155.353L411.191 153.935C411.191 153.985 410.874 154.196 410.239 154.569C409.605 154.942 408.81 155.29 407.852 155.614C406.895 155.937 405.868 156.099 404.774 156.099C401.541 156.099 399.197 155.564 397.742 154.495C396.287 153.425 395.56 152.032 395.56 150.316C395.56 148.774 396.082 147.437 397.126 146.306C398.171 145.174 399.614 144.136 401.454 143.191C400.583 142.42 399.676 141.369 398.731 140.038C397.785 138.708 397.313 137.296 397.313 135.804C397.313 133.964 397.972 132.534 399.29 131.514C400.608 130.494 402.436 129.984 404.774 129.984C406.988 129.984 408.691 130.457 409.885 131.402C411.079 132.347 411.676 133.615 411.676 135.207C411.676 136.625 411.154 137.937 410.109 139.143C409.064 140.349 407.659 141.524 405.893 142.668L412.795 150.13C413.466 149.384 414.213 148.376 415.033 147.108C415.307 146.71 415.606 146.213 415.929 145.616L417.346 146.548C417.123 147.095 416.849 147.63 416.526 148.153C415.779 149.421 414.959 150.54 414.064 151.51L417.682 155.353H412.608ZM404.774 131.477C403.879 131.477 403.22 131.8 402.797 132.447C402.374 133.093 402.163 134.213 402.163 135.804C402.163 137.794 402.946 139.572 404.513 141.139C405.384 140.343 406.049 139.503 406.509 138.621C406.969 137.738 407.199 136.724 407.199 135.58C407.199 134.163 406.957 133.124 406.472 132.465C405.987 131.806 405.421 131.477 404.774 131.477ZM405.11 154.606C406.08 154.606 407 154.42 407.871 154.047C408.741 153.674 409.475 153.214 410.072 152.666L402.946 144.982C401.255 146.474 400.409 148.128 400.409 149.943C400.409 151.386 400.807 152.524 401.603 153.357C402.399 154.19 403.568 154.606 405.11 154.606ZM441.11 156.099C438.548 156.099 436.341 155.545 434.488 154.439C432.635 153.332 431.224 151.821 430.254 149.906C429.284 147.991 428.799 145.827 428.799 143.415C428.799 140.928 429.334 138.658 430.403 136.606C431.473 134.554 432.946 132.938 434.824 131.756C436.702 130.575 438.797 129.984 441.11 129.984C443.299 129.984 445.127 130.264 446.594 130.824C448.062 131.383 449.181 132.111 449.952 133.006C450.4 133.578 450.673 134.287 450.773 135.132C450.872 135.978 450.922 137.159 450.922 138.677H449.803C449.33 136.388 448.46 134.648 447.191 133.454C445.923 132.26 444.269 131.663 442.229 131.663C439.693 131.663 437.691 132.559 436.223 134.349C434.756 136.14 434.022 139.162 434.022 143.415C434.022 146.573 434.694 149.197 436.037 151.286C437.38 153.376 439.444 154.42 442.229 154.42C443.971 154.42 445.568 153.96 447.023 153.039C448.478 152.119 449.653 150.801 450.549 149.085L451.854 150.092C450.661 152.182 449.218 153.705 447.527 154.662C445.836 155.62 443.697 156.099 441.11 156.099ZM476.178 155.502C474.611 155.502 473.193 155.172 471.925 154.513C470.657 153.854 469.624 152.567 468.829 150.652L467.971 148.563H458.047L454.988 155.353H453.048L464.053 130.73H465.732L474.089 150.652C475.034 152.965 476.327 154.209 477.969 154.383V155.315C477.521 155.439 476.924 155.502 476.178 155.502ZM467.262 146.884L463.158 137.147L458.831 146.884H467.262ZM500.427 155.726C498.86 155.726 497.362 155.409 495.932 154.774C494.502 154.14 492.966 152.965 491.324 151.249L485.318 144.982V155.353H480.468L480.431 135.58C480.431 134.312 480.257 133.373 479.909 132.764C479.561 132.154 478.864 131.85 477.82 131.85H477.447V130.73H481.923C482.794 130.73 483.472 130.88 483.956 131.178C484.441 131.477 484.789 131.974 485.001 132.67C485.212 133.367 485.318 134.337 485.318 135.58V142.668L491.772 134.648C492.692 133.454 493.681 132.503 494.738 131.794C495.795 131.085 497.007 130.73 498.375 130.73H500.987V132.036C499.445 132.036 498.12 132.229 497.014 132.615C495.907 133 494.956 133.69 494.16 134.685L488.601 141.549L497.219 150.503C498.139 151.522 499.177 152.412 500.334 153.17C501.49 153.929 502.429 154.358 503.15 154.457V155.353C502.404 155.601 501.497 155.726 500.427 155.726ZM506.284 135.58C506.284 134.312 506.11 133.373 505.762 132.764C505.414 132.154 504.717 131.85 503.673 131.85H503.3V130.73H519.752C521.866 130.73 522.923 131.725 522.923 133.715V136.886H521.804C521.804 135.344 521.412 134.213 520.628 133.491C519.845 132.77 518.682 132.409 517.14 132.409H511.134V141.736H520.833V143.415H511.134V153.674H517.513C518.931 153.674 520.112 153.357 521.057 152.722C522.002 152.088 522.786 150.988 523.408 149.421L524.415 149.794L523.333 152.741C523.01 153.637 522.624 154.295 522.177 154.718C521.729 155.141 521.032 155.353 520.087 155.353H506.284V135.58ZM535.309 155.987C533.916 155.987 532.573 155.806 531.279 155.446C529.986 155.085 528.929 154.563 528.108 153.879C527.288 153.195 526.877 152.405 526.877 151.51V147.145H527.922C528.295 149.682 529.078 151.51 530.272 152.629C531.466 153.749 533.132 154.308 535.271 154.308C536.714 154.308 537.858 153.997 538.703 153.375C539.549 152.753 539.972 151.858 539.972 150.689C539.972 149.695 539.661 148.849 539.039 148.153C538.417 147.456 537.447 146.697 536.129 145.877L531.54 143.116C529.874 142.146 528.686 141.139 527.978 140.094C527.269 139.05 526.915 137.831 526.915 136.438C526.915 134.474 527.667 132.919 529.172 131.775C530.676 130.631 532.709 130.059 535.271 130.059C536.664 130.059 538.007 130.239 539.3 130.6C540.593 130.961 541.651 131.483 542.471 132.167C543.292 132.851 543.702 133.64 543.702 134.536V138.901H542.658C542.235 136.364 541.451 134.536 540.307 133.417C539.163 132.297 537.622 131.738 535.682 131.738C534.338 131.738 533.275 132.061 532.492 132.708C531.709 133.354 531.317 134.237 531.317 135.357C531.317 136.326 531.621 137.128 532.23 137.763C532.84 138.397 533.828 139.112 535.197 139.908L539.785 142.631C541.526 143.651 542.776 144.639 543.534 145.597C544.293 146.555 544.672 147.705 544.672 149.048C544.672 151.212 543.858 152.909 542.229 154.14C540.6 155.371 538.293 155.987 535.309 155.987Z" fill="white"/>
<path d="M193.574 51.5245H214.303V108.19H193.574V51.5245ZM238.782 75.0826C242.202 81.5237 245.761 87.4262 249.441 92.7735C253.139 98.1378 257.011 102.964 261.073 107.27L244.615 119.544C238.816 113.033 233.469 105.829 228.556 97.9469C223.626 90.0651 219.025 81.2807 214.703 71.6108C220.883 67.6177 225.414 64.1281 228.313 61.1249C231.195 58.1213 232.636 55.465 232.636 53.1213C232.636 51.6284 232.115 50.4825 231.091 49.6495C230.049 48.8161 228.556 48.3992 226.629 48.3992H189.928L194.651 31.0039H230.796C243.55 31.0039 255.24 36.1732 255.24 50.5694C255.24 55.3785 253.868 59.8054 251.142 63.8329C248.417 67.8781 244.303 71.6108 238.782 75.0826ZM309.978 31.0039H322.374L327.079 48.3992H311.35C303.832 48.3992 297.843 49.7882 293.416 52.5831C289.007 55.3785 285.673 59.8402 283.434 66.0031H303.121V51.5245H323.954V108.19H303.121V83.8153H281.35C281.559 88.0166 282.323 92.1484 283.642 96.211C284.961 100.256 286.836 104.249 289.267 108.19L272.809 119.023C268.677 112.686 265.587 106.315 263.521 99.9262C261.455 93.5373 260.413 87.0966 260.413 80.586C260.413 73.2254 261.646 66.3157 264.094 59.8402C266.559 53.3644 270.014 47.8784 274.493 43.4167C278.66 39.2327 283.677 36.1252 289.51 34.0767C295.361 32.0282 302.183 31.0039 309.978 31.0039ZM337.721 31.0039H356.992L373.658 56.8366L390.203 31.0039H409.595V108.19H389.074L389.89 61.9757L373.658 84.4404L357.373 61.9757L358.241 108.19H337.721V31.0039ZM474.472 48.1909H443.535V60.1698H471.763L466.625 77.5654H443.535V90.7941H477.076L471.503 108.19H422.806V31.0039H469.784L474.472 48.1909ZM529.887 48.6078H509.557C508.168 48.6078 507.179 48.8161 506.554 49.2152C505.929 49.6321 505.617 50.2916 505.617 51.1946C505.617 51.7154 505.756 52.2362 506.05 52.7744C506.328 53.33 506.815 53.9721 507.474 54.7186L524.383 73.5897C526.953 76.5064 528.863 79.3361 530.113 82.0793C531.345 84.8395 531.97 87.6349 531.97 90.482C531.97 93.2943 531.38 95.9158 530.182 98.3464C529.002 100.777 527.335 102.756 525.199 104.318C523.307 105.707 520.946 106.714 518.134 107.304C515.321 107.895 511.016 108.19 505.217 108.19H487.388L482.284 90.3777H504.801C505.981 90.3777 506.884 90.1346 507.492 89.666C508.117 89.1973 508.429 88.4853 508.429 87.5305C508.429 87.1484 508.29 86.6972 507.995 86.1242C507.717 85.5686 507.336 84.996 506.866 84.423L488.395 63.8159C486.502 61.6457 485.044 59.2846 484.02 56.7153C482.996 54.1286 482.492 51.5415 482.492 48.9374C482.492 46.8367 482.804 44.8404 483.412 42.948C484.02 41.0386 484.923 39.3023 486.103 37.705C487.944 35.3092 490.339 33.5906 493.29 32.549C496.242 31.5248 500.599 31.0039 506.363 31.0039H525.199L529.887 48.6078ZM561.223 31.0039V55.1702H581.952V31.0039H602.681V108.19H581.952V72.9824H561.223V91.9575C561.223 96.7492 561.31 100.343 561.484 102.773C561.64 105.204 561.935 107.009 562.351 108.19L544.453 119.648C542.994 117.478 541.953 114.492 541.328 110.707C540.703 106.94 540.39 101.159 540.39 93.3812V31.0039H561.223Z" fill="#D3AE6E"/>
</svg>
